<svg width="32" height="32" viewBox="0 0 32 32" fill="none" xmlns="http://www.w3.org/2000/svg">
<rect x="1" y="1" width="30" height="30" rx="9" fill="white" stroke="black" stroke-width="2"/>
<path d="M10.6719 16.3984C10.6719 14.6016 11.1406 13.1745 12.0781 12.1172C13.0156 11.0599 14.3438 10.5312 16.0625 10.5312C17.099 10.5312 17.9115 10.6641 18.5 10.9297C19.0938 11.1953 19.6146 11.6068 20.0625 12.1641C20.3333 12.5026 20.3255 12.7656 20.0391 12.9531L19.1484 13.5312C18.888 13.7031 18.6094 13.6276 18.3125 13.3047C18.0677 13.0391 17.7578 12.8177 17.3828 12.6406C17.0078 12.4635 16.5938 12.375 16.1406 12.375C15.0469 12.375 14.2682 12.7214 13.8047 13.4141C13.3411 14.1016 13.1094 15.0964 13.1094 16.3984C13.1094 17.7005 13.3411 18.6979 13.8047 19.3906C14.2682 20.0781 15.0469 20.4219 16.1406 20.4219C16.6719 20.4219 17.1302 20.3698 17.5156 20.2656C17.901 20.1562 18.2656 19.9609 18.6094 19.6797V18.2812H16.9141C16.5234 18.2812 16.3281 18.112 16.3281 17.7734V16.8516C16.3281 16.513 16.5234 16.3438 16.9141 16.3438H20.3047C20.6953 16.3438 20.8906 16.513 20.8906 16.8516V20.8203C20.1615 21.3568 19.4245 21.7318 18.6797 21.9453C17.9401 22.1589 17.0677 22.2656 16.0625 22.2656C14.3698 22.2656 13.0469 21.737 12.0938 20.6797C11.1458 19.6224 10.6719 18.1953 10.6719 16.3984Z" fill="black"/>
</svg>
